<?xml version="1.0" encoding="utf-8"?>
<!-- Generator: Adobe Illustrator 24.1.1, SVG Export Plug-In . SVG Version: 6.00 Build 0)  -->
<svg version="1.1" id="Capa_1" xmlns="http://www.w3.org/2000/svg" xmlns:xlink="http://www.w3.org/1999/xlink" x="0px" y="0px"
	 viewBox="0 0 504.6 340.9" style="enable-background:new 0 0 504.6 340.9;" xml:space="preserve">
<style type="text/css">
	.st0{fill:#FFFFFF;}
</style>
<g>
	<circle class="st0" cx="262.5" cy="172.5" r="165.5"/>
</g>
<g>
	<g>
		<path d="M255.3,180l-4.6,36l60.4,10.1l8.8-52.2c-0.2,0-0.3,0-0.5,0l-43.5-5.6c-10.2-1.3-17.4-10.6-16.1-20.8l5.7-44.5l-48.6-8.2
			L206,159.3l36.9,4.7C250.7,165,256.3,172.2,255.3,180z"/>
	</g>
	<g>
		<path d="M275.9,167.3c-9.6-1.2-16.4-10.1-15.2-19.7l5.6-43.8l108-27.8l-55.1,96.8L275.9,167.3z"/>
		<path class="st0" d="M372.3,77.6l-53.6,94.2l-42.6-5.5c-4.4-0.6-8.3-2.8-11-6.3c-2.7-3.5-3.9-7.9-3.3-12.3l5.5-43.2L372.3,77.6
			 M376.4,74.5L265.4,103l-5.7,44.5c-1.3,10.2,5.9,19.5,16.1,20.8l43.5,5.6c0.2,0,0.3,0,0.5,0L376.4,74.5L376.4,74.5z"/>
	</g>
	<g>
		<path d="M206.5,160.3l36.3,4.6c7.3,0.9,12.5,7.6,11.5,14.9l-4.5,35.4l-111.7,40L206.5,160.3z"/>
		<path class="st0" d="M206.9,161.4l35.7,4.6c3.3,0.4,6.2,2.1,8.2,4.7c2,2.6,2.9,5.8,2.5,9.1l-4.5,34.8l-108.1,38.7L206.9,161.4
			 M206,159.3l-70.7,98.1L250.7,216l4.6-36c1-7.9-4.5-15-12.4-16L206,159.3L206,159.3z"/>
	</g>
</g>
</svg>
