<?xml version="1.0" encoding="utf-8"?>
<!-- Generator: Adobe Illustrator 24.1.1, SVG Export Plug-In . SVG Version: 6.00 Build 0)  -->
<svg version="1.1" id="Capa_1" xmlns="http://www.w3.org/2000/svg" xmlns:xlink="http://www.w3.org/1999/xlink" x="0px" y="0px"
	 viewBox="0 0 359.6 128.9" style="enable-background:new 0 0 359.6 128.9;" xml:space="preserve">
<style type="text/css">
	.st0{fill:#FFFFFF;}
	.st1{enable-background:new    ;}
	.st2{fill:none;stroke:#FFFFFF;stroke-width:0.25;stroke-miterlimit:10;}
</style>
<g>
	<g>
		<path class="st0" d="M78.5,74.4L76,94l32.8,5.5l4.8-28.3c-0.1,0-0.2,0-0.2,0l-23.6-3c-5.5-0.7-9.4-5.8-8.7-11.3L84,32.8l-26.3-4.4
			l-5.9,35l20,2.5C76.1,66.2,79.1,70.1,78.5,74.4z"/>
	</g>
	<g>
		<path class="st0" d="M89.9,66.3c-4.6-0.6-7.9-4.9-7.3-9.4l3-23l55.3-14.3l-28.2,49.7L89.9,66.3z"/>
		<path d="M137.5,22.2l-25.7,45.3l-21.7-2.8c-1.8-0.2-3.4-1.1-4.5-2.5s-1.5-3.2-1.3-5L87,35.3L137.5,22.2 M144.2,17.1L84,32.6
			l-3.1,24.1c-0.7,5.5,3.2,10.6,8.7,11.3l23.6,3c0.1,0,0.2,0,0.2,0L144.2,17.1L144.2,17.1z"/>
	</g>
	<g>
		<path class="st0" d="M52.5,64.9l19,2.4c3.3,0.4,5.8,3.5,5.3,6.9l-2.3,18.5L17.9,113L52.5,64.9z"/>
		<path d="M53.3,66.7l18,2.3c2.4,0.3,4.2,2.5,3.9,5L73,91.5l-50.7,18.1L53.3,66.7 M51.7,63.1l-38.4,53.2L76,93.9l2.5-19.6
			c0.6-4.3-2.4-8.2-6.7-8.7L51.7,63.1L51.7,63.1z"/>
	</g>
</g>
<g class="st1">
	<path class="st0" d="M145.6,43.9v-4.4h19.7v4.4h-7.7v23.2h-4.5V43.9H145.6z"/>
	<path class="st0" d="M167.5,67.2V39.5h19.1v4.6h-14.7v7.1h8.6v4.4h-8.6v7.2h14.7v4.4H167.5z"/>
	<path class="st0" d="M188.5,56.8v-7.4c0.1-1.8,0.5-3.5,1.2-4.9c0.3-0.6,0.7-1.2,1.2-1.8c0.5-0.6,1-1.1,1.7-1.6
		c0.7-0.5,1.5-0.8,2.4-1.1c0.9-0.3,2-0.4,3.3-0.4h9.8V44h-8.5c-0.8,0-1.6,0.1-2.2,0.3c-0.6,0.2-1.2,0.4-1.6,0.8
		c-0.5,0.3-0.9,0.7-1.2,1.1c-0.3,0.4-0.6,0.8-0.8,1.2c-0.5,1-0.8,2.1-0.8,3.4v5.1c0.1,1.3,0.4,2.5,0.8,3.5c0.2,0.5,0.5,0.9,0.8,1.3
		c0.3,0.4,0.7,0.8,1.2,1.1c0.5,0.3,1,0.6,1.6,0.8c0.6,0.2,1.4,0.3,2.2,0.3l8.5-0.1v4.4h-9.8c-1.2,0-2.3-0.2-3.2-0.5
		c-0.9-0.3-1.7-0.7-2.4-1.2c-0.7-0.5-1.3-1-1.7-1.7c-0.5-0.6-0.8-1.3-1.1-1.9C189.1,60.4,188.7,58.7,188.5,56.8z"/>
	<path class="st0" d="M211.4,67.2V39.6h4.5l11.7,19.5V39.5h4.7v27.7h-4.7l-11.7-19.6v19.6H211.4z"/>
	<path class="st0" d="M235.2,57.2v-8.3c0.1-1.8,0.5-3.5,1.3-4.9c0.3-0.6,0.7-1.2,1.2-1.8c0.5-0.6,1.1-1.1,1.8-1.6
		c0.7-0.5,1.5-0.8,2.4-1.1c0.9-0.3,2-0.4,3.3-0.4h1.1c1.2,0,2.3,0.1,3.2,0.4c0.9,0.3,1.7,0.6,2.4,1.1c0.7,0.5,1.3,1,1.8,1.6
		s0.9,1.2,1.2,1.8c0.7,1.4,1.1,3.1,1.3,4.9v8.3c-0.1,1.9-0.5,3.7-1.3,5.2c-0.3,0.7-0.7,1.3-1.2,1.9c-0.5,0.6-1.1,1.2-1.7,1.7
		c-0.7,0.5-1.5,0.9-2.4,1.2c-0.9,0.3-2,0.5-3.3,0.5H245c-1.2,0-2.3-0.2-3.2-0.5c-0.9-0.3-1.7-0.7-2.4-1.2c-0.7-0.5-1.3-1-1.8-1.7
		c-0.5-0.6-0.9-1.3-1.2-1.9C235.7,60.8,235.2,59.1,235.2,57.2z M239.6,56.1c0,1.2,0.3,2.3,0.8,3.4c0.2,0.4,0.4,0.9,0.7,1.3
		c0.3,0.4,0.6,0.8,1.1,1.2c0.4,0.4,0.9,0.6,1.5,0.9c0.6,0.2,1.2,0.4,2,0.4l0,0v0c0.7,0,1.4-0.2,2-0.4c0.6-0.2,1.1-0.5,1.5-0.9
		c0.4-0.4,0.8-0.7,1-1.2c0.3-0.4,0.5-0.8,0.7-1.3c0.5-1,0.7-2.1,0.8-3.4v-5.9c0-1.1-0.3-2.2-0.8-3.1c-0.2-0.4-0.4-0.8-0.7-1.2
		c-0.3-0.4-0.6-0.7-1-1.1c-0.4-0.3-0.9-0.6-1.5-0.8c-0.6-0.2-1.2-0.4-2-0.4v-0.1l0,0.1c-0.7,0-1.4,0.2-2,0.4c-0.6,0.2-1,0.5-1.5,0.8
		c-0.4,0.3-0.8,0.7-1.1,1.1c-0.3,0.4-0.5,0.8-0.7,1.2c-0.5,1-0.7,2-0.8,3.1V56.1z"/>
	<path class="st0" d="M258.7,67.2V39.5h19.1v4.6h-14.7v7.1h8.6v4.4h-8.6v7.2h14.7v4.4H258.7z"/>
	<path class="st0" d="M279,39.5h4.4l6,20.5l6-20.5h4.4l-8.1,27.7h-4.5L279,39.5z"/>
	<path class="st0" d="M300.8,57.2v-8.3c0.1-1.8,0.5-3.5,1.3-4.9c0.3-0.6,0.7-1.2,1.2-1.8c0.5-0.6,1.1-1.1,1.8-1.6
		c0.7-0.5,1.5-0.8,2.4-1.1c0.9-0.3,2-0.4,3.3-0.4h1.1c1.2,0,2.3,0.1,3.2,0.4c0.9,0.3,1.7,0.6,2.4,1.1c0.7,0.5,1.3,1,1.8,1.6
		c0.5,0.6,0.9,1.2,1.2,1.8c0.7,1.4,1.1,3.1,1.3,4.9v8.3c-0.1,1.9-0.5,3.7-1.3,5.2c-0.3,0.7-0.7,1.3-1.2,1.9
		c-0.5,0.6-1.1,1.2-1.7,1.7c-0.7,0.5-1.5,0.9-2.4,1.2c-0.9,0.3-2,0.5-3.3,0.5h-1.2c-1.2,0-2.3-0.2-3.2-0.5c-0.9-0.3-1.7-0.7-2.4-1.2
		c-0.7-0.5-1.3-1-1.8-1.7c-0.5-0.6-0.9-1.3-1.2-1.9C301.3,60.8,300.9,59.1,300.8,57.2z M305.3,56.1c0,1.2,0.3,2.3,0.8,3.4
		c0.2,0.4,0.4,0.9,0.7,1.3c0.3,0.4,0.6,0.8,1.1,1.2c0.4,0.4,0.9,0.6,1.5,0.9c0.6,0.2,1.2,0.4,2,0.4l0,0v0c0.7,0,1.4-0.2,2-0.4
		c0.6-0.2,1.1-0.5,1.5-0.9c0.4-0.4,0.8-0.7,1-1.2c0.3-0.4,0.5-0.8,0.7-1.3c0.5-1,0.7-2.1,0.8-3.4v-5.9c0-1.1-0.3-2.2-0.8-3.1
		c-0.2-0.4-0.4-0.8-0.7-1.2c-0.3-0.4-0.6-0.7-1-1.1c-0.4-0.3-0.9-0.6-1.5-0.8c-0.6-0.2-1.2-0.4-2-0.4v-0.1l0,0.1
		c-0.7,0-1.4,0.2-2,0.4c-0.6,0.2-1,0.5-1.5,0.8c-0.4,0.3-0.8,0.7-1.1,1.1c-0.3,0.4-0.5,0.8-0.7,1.2c-0.5,1-0.7,2-0.8,3.1V56.1z"/>
</g>
<g class="st1">
	<path class="st0" d="M144.5,98.7V86.5h1v12.3H144.5z"/>
	<path class="st0" d="M148.6,98.7v-8.4h1v1.4c0.6-1,1.5-1.6,2.9-1.6c1,0,1.8,0.3,2.4,0.9c0.6,0.6,0.8,1.4,0.8,2.5v5.1h-1v-5
		c0-0.9-0.2-1.5-0.6-2c-0.4-0.5-1-0.7-1.8-0.7c-0.8,0-1.4,0.2-1.9,0.7c-0.5,0.5-0.7,1.1-0.7,1.9v5.1H148.6z"/>
	<path class="st0" d="M158.7,98.7v-7.5h-1.4v-0.9h1.4c-0.3-0.7-0.4-1.2-0.4-1.7c0-0.8,0.2-1.3,0.7-1.7c0.5-0.4,1.1-0.6,1.8-0.6
		c1.2,0,2,0.6,2.3,1.7l-0.9,0.2c-0.2-0.8-0.7-1.1-1.4-1.1c-0.4,0-0.7,0.1-1,0.4c-0.3,0.3-0.4,0.6-0.4,1.2c0,0.4,0.1,1,0.4,1.7h2.6
		v0.9h-2.6v7.5H158.7z"/>
	<path class="st0" d="M170.1,97.7c-0.8,0.8-1.8,1.2-3,1.2s-2.2-0.4-3-1.2c-0.8-0.8-1.2-1.9-1.2-3.2c0-1.3,0.4-2.3,1.2-3.1
		c0.8-0.8,1.8-1.2,3-1.2s2.2,0.4,3,1.2c0.8,0.8,1.2,1.9,1.2,3.1C171.2,95.8,170.8,96.8,170.1,97.7z M164.8,97.1c0.6,0.6,1.3,1,2.3,1
		s1.7-0.3,2.3-1c0.6-0.7,0.8-1.5,0.8-2.5c0-1-0.3-1.9-0.8-2.5c-0.6-0.7-1.3-1-2.3-1s-1.7,0.3-2.3,1c-0.6,0.6-0.8,1.5-0.8,2.5
		S164.3,96.4,164.8,97.1z"/>
	<path class="st0" d="M173.4,98.7v-8.4h1v1.8c0.5-1.3,1.3-1.9,2.5-1.9c0.6,0,1.2,0.2,1.6,0.6c0.4,0.4,0.6,1,0.6,1.7
		c0,0.3,0,0.6-0.1,1l-1-0.1c0-0.2,0.1-0.4,0.1-0.6c0-1.1-0.5-1.7-1.5-1.7c-0.6,0-1.2,0.3-1.6,1c-0.4,0.6-0.7,1.5-0.7,2.5v4.1H173.4z
		"/>
	<path class="st0" d="M190.7,90.1c1,0,1.8,0.3,2.3,0.9c0.5,0.6,0.8,1.4,0.8,2.5v5.2h-1v-5.1c0-0.9-0.2-1.5-0.6-2
		c-0.4-0.5-1-0.7-1.7-0.7c-0.7,0-1.4,0.2-1.8,0.7c-0.5,0.5-0.7,1.1-0.7,1.9v5.1h-1v-5.1c0-0.9-0.2-1.5-0.6-2c-0.4-0.5-1-0.7-1.7-0.7
		c-0.7,0-1.4,0.2-1.8,0.7c-0.5,0.5-0.7,1.1-0.7,1.9v5.1h-1v-8.4h1v1.4c0.3-0.5,0.6-0.9,1.1-1.1c0.5-0.3,1-0.4,1.6-0.4
		c1.4,0,2.4,0.6,2.8,1.8C188.2,90.7,189.2,90.1,190.7,90.1z"/>
	<path class="st0" d="M199,98.9c-0.9,0-1.7-0.2-2.2-0.7c-0.6-0.5-0.8-1.1-0.8-1.9c0-0.7,0.3-1.3,0.9-1.9c0.6-0.5,1.3-0.8,2.2-0.8
		c1.1,0,2,0.4,2.8,1.3v-1.6c0-0.8-0.2-1.3-0.6-1.8c-0.4-0.4-0.9-0.6-1.6-0.6c-1.4,0-2.3,0.7-2.6,2.2l-0.9-0.2
		c0.2-0.9,0.6-1.6,1.3-2.1c0.6-0.5,1.4-0.8,2.3-0.8c1,0,1.7,0.3,2.3,0.9c0.6,0.6,0.9,1.4,0.9,2.4v5.3h-1v-1.4
		C201.1,98.4,200.2,98.9,199,98.9z M199.1,98.1c1.1,0,2-0.6,2.8-1.7V96c-0.8-1-1.7-1.4-2.8-1.4c-0.6,0-1.1,0.2-1.5,0.5
		c-0.4,0.3-0.6,0.7-0.6,1.3c0,0.5,0.2,0.9,0.6,1.3C197.9,97.9,198.4,98.1,199.1,98.1z"/>
	<path class="st0" d="M209,98.9c-1.2,0-2.2-0.4-2.9-1.2c-0.7-0.8-1.1-1.9-1.1-3.2c0-1.3,0.4-2.3,1.1-3.1c0.7-0.8,1.7-1.2,2.9-1.2
		c1,0,1.8,0.3,2.5,0.8c0.7,0.6,1.1,1.4,1.4,2.5l-0.9,0.3c-0.5-1.9-1.4-2.8-2.9-2.8c-0.9,0-1.6,0.3-2.2,1c-0.5,0.6-0.8,1.5-0.8,2.5
		c0,1.1,0.3,1.9,0.8,2.6c0.5,0.6,1.3,1,2.2,1c0.7,0,1.3-0.2,1.7-0.5c0.4-0.4,0.8-0.9,1.2-1.6l0.8,0.5
		C211.8,98.1,210.6,98.9,209,98.9z"/>
	<path class="st0" d="M215.8,88c-0.1,0.1-0.3,0.2-0.5,0.2s-0.4-0.1-0.5-0.2c-0.1-0.1-0.2-0.3-0.2-0.5c0-0.2,0.1-0.4,0.2-0.5
		c0.1-0.1,0.3-0.2,0.5-0.2s0.4,0.1,0.5,0.2c0.1,0.1,0.2,0.3,0.2,0.5C216,87.7,215.9,87.9,215.8,88z M214.8,98.7v-8.4h1v8.4H214.8z"
		/>
	<path class="st0" d="M225.1,97.7c-0.8,0.8-1.8,1.2-3,1.2c-1.2,0-2.2-0.4-3-1.2c-0.8-0.8-1.2-1.9-1.2-3.2c0-1.3,0.4-2.3,1.2-3.1
		c0.8-0.8,1.8-1.2,3-1.2c1.2,0,2.2,0.4,3,1.2c0.8,0.8,1.2,1.9,1.2,3.1C226.3,95.8,225.9,96.8,225.1,97.7z M219.9,97.1
		c0.6,0.6,1.3,1,2.3,1c0.9,0,1.7-0.3,2.3-1c0.6-0.7,0.8-1.5,0.8-2.5c0-1-0.3-1.9-0.8-2.5c-0.6-0.7-1.3-1-2.3-1c-0.9,0-1.7,0.3-2.3,1
		c-0.6,0.6-0.8,1.5-0.8,2.5S219.3,96.4,219.9,97.1z M221.4,89.2l1.9-2.6h1.2l-2.2,2.6H221.4z"/>
	<path class="st0" d="M228.4,98.7v-8.4h1v1.4c0.6-1,1.5-1.6,2.9-1.6c1,0,1.8,0.3,2.4,0.9c0.6,0.6,0.8,1.4,0.8,2.5v5.1h-1v-5
		c0-0.9-0.2-1.5-0.6-2c-0.4-0.5-1-0.7-1.8-0.7c-0.8,0-1.4,0.2-1.9,0.7c-0.5,0.5-0.7,1.1-0.7,1.9v5.1H228.4z"/>
	<path class="st0" d="M242.6,98.7V86.5h1v12.3H242.6z"/>
	<path class="st0" d="M246.7,98.7v-8.4h1v1.4c0.6-1,1.5-1.6,2.9-1.6c1,0,1.8,0.3,2.4,0.9c0.6,0.6,0.8,1.4,0.8,2.5v5.1h-1v-5
		c0-0.9-0.2-1.5-0.6-2c-0.4-0.5-1-0.7-1.8-0.7c-0.8,0-1.4,0.2-1.9,0.7c-0.5,0.5-0.7,1.1-0.7,1.9v5.1H246.7z"/>
	<path class="st0" d="M256.5,98.7v-8.4h1v1.4c0.6-1,1.5-1.6,2.9-1.6c1,0,1.8,0.3,2.4,0.9c0.6,0.6,0.8,1.4,0.8,2.5v5.1h-1v-5
		c0-0.9-0.2-1.5-0.6-2c-0.4-0.5-1-0.7-1.8-0.7c-0.8,0-1.4,0.2-1.9,0.7c-0.5,0.5-0.7,1.1-0.7,1.9v5.1H256.5z"/>
	<path class="st0" d="M272.8,97.7c-0.8,0.8-1.8,1.2-3,1.2c-1.2,0-2.2-0.4-3-1.2c-0.8-0.8-1.2-1.9-1.2-3.2c0-1.3,0.4-2.3,1.2-3.1
		c0.8-0.8,1.8-1.2,3-1.2c1.2,0,2.2,0.4,3,1.2c0.8,0.8,1.2,1.9,1.2,3.1C273.9,95.8,273.6,96.8,272.8,97.7z M267.5,97.1
		c0.6,0.6,1.3,1,2.3,1c0.9,0,1.7-0.3,2.3-1c0.6-0.7,0.8-1.5,0.8-2.5c0-1-0.3-1.9-0.8-2.5c-0.6-0.7-1.3-1-2.3-1c-0.9,0-1.7,0.3-2.3,1
		c-0.6,0.6-0.8,1.5-0.8,2.5S267,96.4,267.5,97.1z"/>
	<path class="st0" d="M278.3,98.7l-3.5-8.4h1.1l3,7.4l3-7.4h1.1l-3.5,8.4H278.3z"/>
	<path class="st0" d="M286.9,98.9c-0.9,0-1.7-0.2-2.2-0.7c-0.6-0.5-0.8-1.1-0.8-1.9c0-0.7,0.3-1.3,0.9-1.9c0.6-0.5,1.3-0.8,2.2-0.8
		c1.1,0,2,0.4,2.8,1.3v-1.6c0-0.8-0.2-1.3-0.6-1.8c-0.4-0.4-0.9-0.6-1.6-0.6c-1.4,0-2.3,0.7-2.6,2.2l-0.9-0.2
		c0.2-0.9,0.6-1.6,1.3-2.1c0.6-0.5,1.4-0.8,2.3-0.8c1,0,1.7,0.3,2.3,0.9c0.6,0.6,0.9,1.4,0.9,2.4v5.3h-1v-1.4
		C289.1,98.4,288.1,98.9,286.9,98.9z M287,98.1c1.1,0,2-0.6,2.8-1.7V96c-0.8-1-1.7-1.4-2.8-1.4c-0.6,0-1.1,0.2-1.5,0.5
		c-0.4,0.3-0.6,0.7-0.6,1.3c0,0.5,0.2,0.9,0.6,1.3C285.9,97.9,286.4,98.1,287,98.1z"/>
	<path class="st0" d="M296.7,98.9c-1.1,0-2-0.4-2.8-1.3c-0.7-0.8-1.1-1.9-1.1-3.1c0-1.3,0.4-2.3,1.1-3.1c0.7-0.8,1.7-1.2,2.8-1.2
		c0.8,0,1.4,0.2,2,0.5c0.6,0.4,1,0.9,1.3,1.5v-5.7h1v12.3h-1v-1.8c-0.3,0.6-0.7,1.1-1.3,1.5S297.5,98.9,296.7,98.9z M296.9,98
		c0.9,0,1.6-0.3,2.2-1c0.6-0.7,0.9-1.5,0.9-2.5c0-1-0.3-1.8-0.9-2.5c-0.6-0.7-1.3-1-2.2-1c-0.9,0-1.6,0.3-2.2,1
		c-0.6,0.6-0.8,1.5-0.8,2.5s0.3,1.9,0.8,2.6S296,98,296.9,98z"/>
	<path class="st0" d="M310.3,97.7c-0.8,0.8-1.8,1.2-3,1.2c-1.2,0-2.2-0.4-3-1.2c-0.8-0.8-1.2-1.9-1.2-3.2c0-1.3,0.4-2.3,1.2-3.1
		c0.8-0.8,1.8-1.2,3-1.2c1.2,0,2.2,0.4,3,1.2c0.8,0.8,1.2,1.9,1.2,3.1C311.5,95.8,311.1,96.8,310.3,97.7z M305.1,97.1
		c0.6,0.6,1.3,1,2.3,1c0.9,0,1.7-0.3,2.3-1c0.6-0.7,0.8-1.5,0.8-2.5c0-1-0.3-1.9-0.8-2.5c-0.6-0.7-1.3-1-2.3-1c-0.9,0-1.7,0.3-2.3,1
		c-0.6,0.6-0.8,1.5-0.8,2.5S304.5,96.4,305.1,97.1z"/>
	<path class="st0" d="M313.7,98.7v-8.4h1v1.8c0.5-1.3,1.3-1.9,2.5-1.9c0.6,0,1.2,0.2,1.6,0.6c0.4,0.4,0.6,1,0.6,1.7
		c0,0.3,0,0.6-0.1,1l-1-0.1c0-0.2,0.1-0.4,0.1-0.6c0-1.1-0.5-1.7-1.5-1.7c-0.6,0-1.2,0.3-1.6,1c-0.4,0.6-0.7,1.5-0.7,2.5v4.1H313.7z
		"/>
	<path class="st0" d="M323.6,98.9c-0.9,0-1.7-0.2-2.2-0.7s-0.8-1.1-0.8-1.9c0-0.7,0.3-1.3,0.9-1.9c0.6-0.5,1.3-0.8,2.2-0.8
		c1.1,0,2,0.4,2.8,1.3v-1.6c0-0.8-0.2-1.3-0.6-1.8c-0.4-0.4-0.9-0.6-1.6-0.6c-1.4,0-2.3,0.7-2.6,2.2l-0.9-0.2
		c0.2-0.9,0.6-1.6,1.3-2.1c0.6-0.5,1.4-0.8,2.3-0.8c1,0,1.7,0.3,2.3,0.9c0.6,0.6,0.9,1.4,0.9,2.4v5.3h-1v-1.4
		C325.8,98.4,324.8,98.9,323.6,98.9z M323.7,98.1c1.1,0,2-0.6,2.7-1.7V96c-0.8-1-1.7-1.4-2.7-1.4c-0.6,0-1.1,0.2-1.5,0.5
		c-0.4,0.3-0.6,0.7-0.6,1.3c0,0.5,0.2,0.9,0.6,1.3C322.6,97.9,323.1,98.1,323.7,98.1z"/>
</g>
<line class="st2" x1="142.5" y1="76.1" x2="332.5" y2="75.8"/>
</svg>
