<?xml version="1.0" encoding="utf-8"?>
<!-- Generator: Adobe Illustrator 24.1.1, SVG Export Plug-In . SVG Version: 6.00 Build 0)  -->
<svg version="1.1" id="Capa_1" xmlns="http://www.w3.org/2000/svg" xmlns:xlink="http://www.w3.org/1999/xlink" x="0px" y="0px"
	 viewBox="0 0 345.2 156.4" style="enable-background:new 0 0 345.2 156.4;" xml:space="preserve">
<style type="text/css">
	.st0{fill:#FFFFFF;}
	.st1{fill:#00A6FF;}
	.st2{enable-background:new    ;}
	.st3{fill:none;stroke:#FFFFFF;stroke-width:0.25;stroke-miterlimit:10;}
	.st4{display:none;fill:none;stroke:#FFFFFF;stroke-width:0.25;stroke-miterlimit:10;}
</style>
<g>
	<g>
		<path class="st0" d="M76.4,87l-2.5,19.6l32.8,5.5l4.8-28.3c-0.1,0-0.2,0-0.2,0l-23.6-3c-5.5-0.7-9.4-5.8-8.7-11.3L82,45.4
			l-26.3-4.4l-5.9,35l20,2.5C74,78.8,77,82.7,76.4,87z"/>
	</g>
	<g>
		<path class="st0" d="M87.8,78.9c-4.6-0.6-7.9-4.9-7.3-9.4l3-23l55.3-14.3l-28.2,49.7L87.8,78.9z"/>
		<path class="st1" d="M135.4,34.7L109.7,80L88,77.2c-1.8-0.2-3.4-1.1-4.5-2.5c-1.1-1.4-1.5-3.2-1.3-5l2.8-21.9L135.4,34.7
			 M142.2,29.7L82,45.1l-3.1,24.1c-0.7,5.5,3.2,10.6,8.7,11.3l23.6,3c0.1,0,0.2,0,0.2,0L142.2,29.7L142.2,29.7z"/>
	</g>
	<g>
		<path class="st0" d="M50.4,77.5l19,2.4c3.3,0.4,5.8,3.5,5.3,6.9l-2.3,18.5l-56.7,20.4L50.4,77.5z"/>
		<path class="st1" d="M51.2,79.2l18,2.3c2.4,0.3,4.2,2.5,3.9,5L70.9,104l-50.7,18.1L51.2,79.2 M49.6,75.7l-38.4,53.2l62.6-22.5
			l2.5-19.6c0.6-4.3-2.4-8.2-6.7-8.7L49.6,75.7L49.6,75.7z"/>
	</g>
</g>
<g class="st2">
	<path class="st0" d="M143.5,56.5V52h19.7v4.4h-7.7v23.2h-4.5V56.5H143.5z"/>
	<path class="st0" d="M165.4,79.7V52h19.1v4.6h-14.7v7.1h8.6v4.4h-8.6v7.2h14.7v4.4H165.4z"/>
	<path class="st0" d="M186.5,69.3v-7.4c0.1-1.8,0.5-3.5,1.2-4.9c0.3-0.6,0.7-1.2,1.2-1.8c0.5-0.6,1-1.1,1.7-1.6
		c0.7-0.5,1.5-0.8,2.4-1.1c0.9-0.3,2-0.4,3.3-0.4h9.8v4.5h-8.5c-0.8,0-1.6,0.1-2.2,0.3c-0.6,0.2-1.2,0.4-1.6,0.8
		c-0.5,0.3-0.9,0.7-1.2,1.1c-0.3,0.4-0.6,0.8-0.8,1.2c-0.5,1-0.8,2.1-0.8,3.4v5.1c0.1,1.3,0.4,2.5,0.8,3.5c0.2,0.5,0.5,0.9,0.8,1.3
		c0.3,0.4,0.7,0.8,1.2,1.1c0.5,0.3,1,0.6,1.6,0.8c0.6,0.2,1.4,0.3,2.2,0.3l8.5-0.1v4.4h-9.8c-1.2,0-2.3-0.2-3.2-0.5
		c-0.9-0.3-1.7-0.7-2.4-1.2c-0.7-0.5-1.3-1-1.7-1.7c-0.5-0.6-0.8-1.3-1.1-1.9C187,73,186.6,71.3,186.5,69.3z"/>
	<path class="st0" d="M209.3,79.8V52.1h4.5l11.7,19.5V52.1h4.7v27.7h-4.7l-11.7-19.6v19.6H209.3z"/>
	<path class="st0" d="M233.1,69.7v-8.3c0.1-1.8,0.5-3.5,1.3-4.9c0.3-0.6,0.7-1.2,1.2-1.8s1.1-1.1,1.8-1.6c0.7-0.5,1.5-0.8,2.4-1.1
		c0.9-0.3,2-0.4,3.3-0.4h1.1c1.2,0,2.3,0.1,3.2,0.4c0.9,0.3,1.7,0.6,2.4,1.1c0.7,0.5,1.3,1,1.8,1.6s0.9,1.2,1.2,1.8
		c0.7,1.4,1.1,3.1,1.3,4.9v8.3c-0.1,1.9-0.5,3.7-1.3,5.2c-0.3,0.7-0.7,1.3-1.2,1.9c-0.5,0.6-1.1,1.2-1.7,1.7
		c-0.7,0.5-1.5,0.9-2.4,1.2c-0.9,0.3-2,0.5-3.3,0.5h-1.2c-1.2,0-2.3-0.2-3.2-0.5c-0.9-0.3-1.7-0.7-2.4-1.2c-0.7-0.5-1.3-1-1.8-1.7
		c-0.5-0.6-0.9-1.3-1.2-1.9C233.6,73.4,233.2,71.6,233.1,69.7z M237.5,68.7c0,1.2,0.3,2.3,0.8,3.4c0.2,0.4,0.4,0.9,0.7,1.3
		c0.3,0.4,0.6,0.8,1.1,1.2c0.4,0.4,0.9,0.6,1.5,0.9c0.6,0.2,1.2,0.4,2,0.4l0,0v0c0.7,0,1.4-0.2,2-0.4c0.6-0.2,1.1-0.5,1.5-0.9
		c0.4-0.4,0.8-0.7,1-1.2c0.3-0.4,0.5-0.8,0.7-1.3c0.5-1,0.7-2.1,0.8-3.4v-5.9c0-1.1-0.3-2.2-0.8-3.1c-0.2-0.4-0.4-0.8-0.7-1.2
		c-0.3-0.4-0.6-0.7-1-1.1c-0.4-0.3-0.9-0.6-1.5-0.8c-0.6-0.2-1.2-0.4-2-0.4V56l0,0.1c-0.7,0-1.4,0.2-2,0.4c-0.6,0.2-1,0.5-1.5,0.8
		c-0.4,0.3-0.8,0.7-1.1,1.1c-0.3,0.4-0.5,0.8-0.7,1.2c-0.5,1-0.7,2-0.8,3.1V68.7z"/>
	<path class="st0" d="M256.7,79.7V52h19.1v4.6h-14.7v7.1h8.6v4.4h-8.6v7.2h14.7v4.4H256.7z"/>
	<path class="st0" d="M276.9,52.1h4.4l6,20.5l6-20.5h4.4l-8.1,27.7h-4.5L276.9,52.1z"/>
	<path class="st0" d="M298.8,69.7v-8.3c0.1-1.8,0.5-3.5,1.3-4.9c0.3-0.6,0.7-1.2,1.2-1.8c0.5-0.6,1.1-1.1,1.8-1.6
		c0.7-0.5,1.5-0.8,2.4-1.1c0.9-0.3,2-0.4,3.3-0.4h1.1c1.2,0,2.3,0.1,3.2,0.4c0.9,0.3,1.7,0.6,2.4,1.1c0.7,0.5,1.3,1,1.8,1.6
		c0.5,0.6,0.9,1.2,1.2,1.8c0.7,1.4,1.1,3.1,1.3,4.9v8.3c-0.1,1.9-0.5,3.7-1.3,5.2c-0.3,0.7-0.7,1.3-1.2,1.9
		c-0.5,0.6-1.1,1.2-1.7,1.7c-0.7,0.5-1.5,0.9-2.4,1.2c-0.9,0.3-2,0.5-3.3,0.5h-1.2c-1.2,0-2.3-0.2-3.2-0.5c-0.9-0.3-1.7-0.7-2.4-1.2
		c-0.7-0.5-1.3-1-1.8-1.7c-0.5-0.6-0.9-1.3-1.2-1.9C299.3,73.4,298.8,71.6,298.8,69.7z M303.2,68.7c0,1.2,0.3,2.3,0.8,3.4
		c0.2,0.4,0.4,0.9,0.7,1.3c0.3,0.4,0.6,0.8,1.1,1.2c0.4,0.4,0.9,0.6,1.5,0.9c0.6,0.2,1.2,0.4,2,0.4l0,0v0c0.7,0,1.4-0.2,2-0.4
		c0.6-0.2,1.1-0.5,1.5-0.9c0.4-0.4,0.8-0.7,1-1.2c0.3-0.4,0.5-0.8,0.7-1.3c0.5-1,0.7-2.1,0.8-3.4v-5.9c0-1.1-0.3-2.2-0.8-3.1
		c-0.2-0.4-0.4-0.8-0.7-1.2c-0.3-0.4-0.6-0.7-1-1.1c-0.4-0.3-0.9-0.6-1.5-0.8c-0.6-0.2-1.2-0.4-2-0.4V56l0,0.1c-0.7,0-1.4,0.2-2,0.4
		c-0.6,0.2-1,0.5-1.5,0.8c-0.4,0.3-0.8,0.7-1.1,1.1c-0.3,0.4-0.5,0.8-0.7,1.2c-0.5,1-0.7,2-0.8,3.1V68.7z"/>
</g>
<g class="st2">
	<path class="st0" d="M142.4,111.3V99h1v12.3H142.4z"/>
	<path class="st0" d="M146.5,111.3v-8.4h1v1.4c0.6-1,1.5-1.6,2.9-1.6c1,0,1.8,0.3,2.4,0.9c0.6,0.6,0.8,1.4,0.8,2.5v5.1h-1v-5
		c0-0.9-0.2-1.5-0.6-2c-0.4-0.5-1-0.7-1.8-0.7c-0.8,0-1.4,0.2-1.9,0.7c-0.5,0.5-0.7,1.1-0.7,1.9v5.1H146.5z"/>
	<path class="st0" d="M156.6,111.3v-7.5h-1.4v-0.9h1.4c-0.3-0.7-0.4-1.2-0.4-1.7c0-0.8,0.2-1.3,0.7-1.7c0.5-0.4,1.1-0.6,1.8-0.6
		c1.2,0,2,0.6,2.3,1.7l-0.9,0.2c-0.2-0.8-0.7-1.1-1.4-1.1c-0.4,0-0.7,0.1-1,0.4c-0.3,0.3-0.4,0.6-0.4,1.2c0,0.4,0.1,1,0.4,1.7h2.6
		v0.9h-2.6v7.5H156.6z"/>
	<path class="st0" d="M168,110.2c-0.8,0.8-1.8,1.2-3,1.2s-2.2-0.4-3-1.2c-0.8-0.8-1.2-1.9-1.2-3.2c0-1.3,0.4-2.3,1.2-3.1
		c0.8-0.8,1.8-1.2,3-1.2s2.2,0.4,3,1.2c0.8,0.8,1.2,1.9,1.2,3.1C169.1,108.3,168.8,109.4,168,110.2z M162.8,109.6
		c0.6,0.6,1.3,1,2.3,1s1.7-0.3,2.3-1c0.6-0.7,0.8-1.5,0.8-2.5c0-1-0.3-1.9-0.8-2.5c-0.6-0.7-1.3-1-2.3-1s-1.7,0.3-2.3,1
		c-0.6,0.6-0.8,1.5-0.8,2.5C161.9,108.1,162.2,109,162.8,109.6z"/>
	<path class="st0" d="M171.3,111.3v-8.4h1v1.8c0.5-1.3,1.3-1.9,2.5-1.9c0.6,0,1.2,0.2,1.6,0.6c0.4,0.4,0.6,1,0.6,1.7
		c0,0.3,0,0.6-0.1,1l-1-0.1c0-0.2,0.1-0.4,0.1-0.6c0-1.1-0.5-1.7-1.5-1.7c-0.6,0-1.2,0.3-1.6,1c-0.4,0.6-0.7,1.5-0.7,2.5v4.1H171.3z
		"/>
	<path class="st0" d="M188.6,102.7c1,0,1.8,0.3,2.3,0.9c0.5,0.6,0.8,1.4,0.8,2.5v5.2h-1v-5.1c0-0.9-0.2-1.5-0.6-2
		c-0.4-0.5-1-0.7-1.7-0.7c-0.7,0-1.4,0.2-1.8,0.7c-0.5,0.5-0.7,1.1-0.7,1.9v5.1h-1v-5.1c0-0.9-0.2-1.5-0.6-2c-0.4-0.5-1-0.7-1.7-0.7
		c-0.7,0-1.4,0.2-1.8,0.7c-0.5,0.5-0.7,1.1-0.7,1.9v5.1h-1v-8.4h1v1.4c0.3-0.5,0.6-0.9,1.1-1.1c0.5-0.3,1-0.4,1.6-0.4
		c1.4,0,2.4,0.6,2.8,1.8C186.1,103.3,187.1,102.7,188.6,102.7z"/>
	<path class="st0" d="M196.9,111.5c-0.9,0-1.7-0.2-2.2-0.7c-0.6-0.5-0.8-1.1-0.8-1.9c0-0.7,0.3-1.3,0.9-1.9c0.6-0.5,1.3-0.8,2.2-0.8
		c1.1,0,2,0.4,2.8,1.3V106c0-0.8-0.2-1.3-0.6-1.8c-0.4-0.4-0.9-0.6-1.6-0.6c-1.4,0-2.3,0.7-2.6,2.2l-0.9-0.2
		c0.2-0.9,0.6-1.6,1.3-2.1c0.6-0.5,1.4-0.8,2.3-0.8c1,0,1.7,0.3,2.3,0.9c0.6,0.6,0.9,1.4,0.9,2.4v5.3h-1v-1.4
		C199.1,110.9,198.1,111.5,196.9,111.5z M197,110.6c1.1,0,2-0.6,2.8-1.7v-0.4c-0.8-1-1.7-1.4-2.8-1.4c-0.6,0-1.1,0.2-1.5,0.5
		c-0.4,0.3-0.6,0.7-0.6,1.3c0,0.5,0.2,0.9,0.6,1.3C195.9,110.5,196.4,110.6,197,110.6z"/>
	<path class="st0" d="M206.9,111.4c-1.2,0-2.2-0.4-2.9-1.2c-0.7-0.8-1.1-1.9-1.1-3.2c0-1.3,0.4-2.3,1.1-3.1c0.7-0.8,1.7-1.2,2.9-1.2
		c1,0,1.8,0.3,2.5,0.8c0.7,0.6,1.1,1.4,1.4,2.5l-0.9,0.3c-0.5-1.9-1.4-2.8-2.9-2.8c-0.9,0-1.6,0.3-2.2,1c-0.5,0.6-0.8,1.5-0.8,2.5
		c0,1.1,0.3,1.9,0.8,2.6c0.5,0.6,1.3,1,2.2,1c0.7,0,1.3-0.2,1.7-0.5c0.4-0.4,0.8-0.9,1.2-1.6l0.8,0.5
		C209.8,110.6,208.5,111.4,206.9,111.4z"/>
	<path class="st0" d="M213.7,100.6c-0.1,0.1-0.3,0.2-0.5,0.2s-0.4-0.1-0.5-0.2c-0.1-0.1-0.2-0.3-0.2-0.5c0-0.2,0.1-0.4,0.2-0.5
		c0.1-0.1,0.3-0.2,0.5-0.2s0.4,0.1,0.5,0.2c0.1,0.1,0.2,0.3,0.2,0.5C213.9,100.3,213.9,100.4,213.7,100.6z M212.7,111.3v-8.4h1v8.4
		H212.7z"/>
	<path class="st0" d="M223,110.2c-0.8,0.8-1.8,1.2-3,1.2c-1.2,0-2.2-0.4-3-1.2c-0.8-0.8-1.2-1.9-1.2-3.2c0-1.3,0.4-2.3,1.2-3.1
		c0.8-0.8,1.8-1.2,3-1.2c1.2,0,2.2,0.4,3,1.2c0.8,0.8,1.2,1.9,1.2,3.1C224.2,108.3,223.8,109.4,223,110.2z M217.8,109.6
		c0.6,0.6,1.3,1,2.3,1c0.9,0,1.7-0.3,2.3-1c0.6-0.7,0.8-1.5,0.8-2.5c0-1-0.3-1.9-0.8-2.5c-0.6-0.7-1.3-1-2.3-1c-0.9,0-1.7,0.3-2.3,1
		c-0.6,0.6-0.8,1.5-0.8,2.5C216.9,108.1,217.2,109,217.8,109.6z M219.4,101.8l1.9-2.6h1.2l-2.2,2.6H219.4z"/>
	<path class="st0" d="M226.4,111.3v-8.4h1v1.4c0.6-1,1.5-1.6,2.9-1.6c1,0,1.8,0.3,2.4,0.9c0.6,0.6,0.8,1.4,0.8,2.5v5.1h-1v-5
		c0-0.9-0.2-1.5-0.6-2c-0.4-0.5-1-0.7-1.8-0.7c-0.8,0-1.4,0.2-1.9,0.7c-0.5,0.5-0.7,1.1-0.7,1.9v5.1H226.4z"/>
	<path class="st0" d="M240.5,111.3V99h1v12.3H240.5z"/>
	<path class="st0" d="M244.6,111.3v-8.4h1v1.4c0.6-1,1.5-1.6,2.9-1.6c1,0,1.8,0.3,2.4,0.9c0.6,0.6,0.8,1.4,0.8,2.5v5.1h-1v-5
		c0-0.9-0.2-1.5-0.6-2c-0.4-0.5-1-0.7-1.8-0.7c-0.8,0-1.4,0.2-1.9,0.7c-0.5,0.5-0.7,1.1-0.7,1.9v5.1H244.6z"/>
	<path class="st0" d="M254.4,111.3v-8.4h1v1.4c0.6-1,1.5-1.6,2.9-1.6c1,0,1.8,0.3,2.4,0.9c0.6,0.6,0.8,1.4,0.8,2.5v5.1h-1v-5
		c0-0.9-0.2-1.5-0.6-2c-0.4-0.5-1-0.7-1.8-0.7c-0.8,0-1.4,0.2-1.9,0.7c-0.5,0.5-0.7,1.1-0.7,1.9v5.1H254.4z"/>
	<path class="st0" d="M270.7,110.2c-0.8,0.8-1.8,1.2-3,1.2c-1.2,0-2.2-0.4-3-1.2c-0.8-0.8-1.2-1.9-1.2-3.2c0-1.3,0.4-2.3,1.2-3.1
		c0.8-0.8,1.8-1.2,3-1.2c1.2,0,2.2,0.4,3,1.2c0.8,0.8,1.2,1.9,1.2,3.1C271.9,108.3,271.5,109.4,270.7,110.2z M265.5,109.6
		c0.6,0.6,1.3,1,2.3,1c0.9,0,1.7-0.3,2.3-1c0.6-0.7,0.8-1.5,0.8-2.5c0-1-0.3-1.9-0.8-2.5c-0.6-0.7-1.3-1-2.3-1c-0.9,0-1.7,0.3-2.3,1
		c-0.6,0.6-0.8,1.5-0.8,2.5C264.6,108.1,264.9,109,265.5,109.6z"/>
	<path class="st0" d="M276.2,111.3l-3.5-8.4h1.1l3,7.4l3-7.4h1.1l-3.5,8.4H276.2z"/>
	<path class="st0" d="M284.9,111.5c-0.9,0-1.7-0.2-2.2-0.7c-0.6-0.5-0.8-1.1-0.8-1.9c0-0.7,0.3-1.3,0.9-1.9c0.6-0.5,1.3-0.8,2.2-0.8
		c1.1,0,2,0.4,2.8,1.3V106c0-0.8-0.2-1.3-0.6-1.8c-0.4-0.4-0.9-0.6-1.6-0.6c-1.4,0-2.3,0.7-2.6,2.2l-0.9-0.2
		c0.2-0.9,0.6-1.6,1.3-2.1c0.6-0.5,1.4-0.8,2.3-0.8c1,0,1.7,0.3,2.3,0.9c0.6,0.6,0.9,1.4,0.9,2.4v5.3h-1v-1.4
		C287,110.9,286.1,111.5,284.9,111.5z M284.9,110.6c1.1,0,2-0.6,2.8-1.7v-0.4c-0.8-1-1.7-1.4-2.8-1.4c-0.6,0-1.1,0.2-1.5,0.5
		c-0.4,0.3-0.6,0.7-0.6,1.3c0,0.5,0.2,0.9,0.6,1.3C283.8,110.5,284.3,110.6,284.9,110.6z"/>
	<path class="st0" d="M294.7,111.4c-1.1,0-2-0.4-2.8-1.3c-0.7-0.8-1.1-1.9-1.1-3.1c0-1.3,0.4-2.3,1.1-3.1c0.7-0.8,1.7-1.2,2.8-1.2
		c0.8,0,1.4,0.2,2,0.5c0.6,0.4,1,0.9,1.3,1.5V99h1v12.3h-1v-1.8c-0.3,0.6-0.7,1.1-1.3,1.5C296.1,111.3,295.4,111.4,294.7,111.4z
		 M294.8,110.6c0.9,0,1.6-0.3,2.2-1c0.6-0.7,0.9-1.5,0.9-2.5c0-1-0.3-1.8-0.9-2.5c-0.6-0.7-1.3-1-2.2-1c-0.9,0-1.6,0.3-2.2,1
		c-0.6,0.6-0.8,1.5-0.8,2.5c0,1.1,0.3,1.9,0.8,2.6C293.2,110.3,293.9,110.6,294.8,110.6z"/>
	<path class="st0" d="M308.3,110.2c-0.8,0.8-1.8,1.2-3,1.2c-1.2,0-2.2-0.4-3-1.2c-0.8-0.8-1.2-1.9-1.2-3.2c0-1.3,0.4-2.3,1.2-3.1
		c0.8-0.8,1.8-1.2,3-1.2c1.2,0,2.2,0.4,3,1.2c0.8,0.8,1.2,1.9,1.2,3.1C309.4,108.3,309,109.4,308.3,110.2z M303,109.6
		c0.6,0.6,1.3,1,2.3,1c0.9,0,1.7-0.3,2.3-1c0.6-0.7,0.8-1.5,0.8-2.5c0-1-0.3-1.9-0.8-2.5c-0.6-0.7-1.3-1-2.3-1c-0.9,0-1.7,0.3-2.3,1
		c-0.6,0.6-0.8,1.5-0.8,2.5C302.2,108.1,302.5,109,303,109.6z"/>
	<path class="st0" d="M311.6,111.3v-8.4h1v1.8c0.5-1.3,1.3-1.9,2.5-1.9c0.6,0,1.2,0.2,1.6,0.6c0.4,0.4,0.6,1,0.6,1.7
		c0,0.3,0,0.6-0.1,1l-1-0.1c0-0.2,0.1-0.4,0.1-0.6c0-1.1-0.5-1.7-1.5-1.7c-0.6,0-1.2,0.3-1.6,1c-0.4,0.6-0.7,1.5-0.7,2.5v4.1H311.6z
		"/>
	<path class="st0" d="M321.6,111.5c-0.9,0-1.7-0.2-2.2-0.7c-0.6-0.5-0.8-1.1-0.8-1.9c0-0.7,0.3-1.3,0.9-1.9c0.6-0.5,1.3-0.8,2.2-0.8
		c1.1,0,2,0.4,2.8,1.3V106c0-0.8-0.2-1.3-0.6-1.8c-0.4-0.4-0.9-0.6-1.6-0.6c-1.4,0-2.3,0.7-2.6,2.2l-0.9-0.2
		c0.2-0.9,0.6-1.6,1.3-2.1c0.6-0.5,1.4-0.8,2.3-0.8c1,0,1.7,0.3,2.3,0.9c0.6,0.6,0.9,1.4,0.9,2.4v5.3h-1v-1.4
		C323.7,110.9,322.8,111.5,321.6,111.5z M321.6,110.6c1.1,0,2-0.6,2.8-1.7v-0.4c-0.8-1-1.7-1.4-2.8-1.4c-0.6,0-1.1,0.2-1.5,0.5
		c-0.4,0.3-0.6,0.7-0.6,1.3c0,0.5,0.2,0.9,0.6,1.3C320.5,110.5,321,110.6,321.6,110.6z"/>
</g>
<line class="st3" x1="140.4" y1="88.6" x2="330.4" y2="88.4"/>
<text transform="matrix(1 0 0 1 116.1539 203.9503)" style="display:none;enable-background:new    ; font-family:'NidusSans'; font-size:34.1197px;">TECNOEVO</text>
<text transform="matrix(1 0 0 1 114.4747 232.4581)" style="display:none;enable-background:new    ; font-family:'Ambit-Light'; font-size:15.9316px;">Información Innovadora</text>
<line class="st4" x1="114.1" y1="212" x2="285.9" y2="211.8"/>
</svg>
